# xmcd
# 
# Track frame offsets:
#     187
#     8662
#     35912
#     65617
#     80655
#     99580
#     110792
#     146297
#     168310
#     196332
#     218005
#     237247
# 
# Disc length: 3540
# 
# Revision: 1
# Processed by: cddbd v1.5.2PL0 Copyright (c) Steve Scherf et al.
# Submitted via: BonkEnc v1.0.6
# 
DISCID=a50dd20c
DTITLE=Joe Zawinul - My Pepole
DYEAR=1996
DGENRE=Fusion
TTITLE0=Introduction To A Mighty Theme
TTITLE1=Waraya
TTITLE2=Bimoya
TTITLE3=You Want Some tea Grandpa?
TTITLE4=Slivovitz Trail
TTITLE5=Ochy-Bala
TTITLE6=Orient Express
TTITLE7=Eradapfee Blues(Potato Blues)
TTITLE8=Mi Gente
TTITLE9=In An Island Way
TTITLE10=Many Churches
TTITLE11=Otzi
EXTD=
EXTT0=
EXTT1=
EXTT2=
EXTT3=
EXTT4=
EXTT5=
EXTT6=
EXTT7=
EXTT8=
EXTT9=
EXTT10=
EXTT11=
PLAYORDER=
